<svg width="56" height="56" viewBox="0 0 56 56" fill="none" xmlns="http://www.w3.org/2000/svg">
<path d="M55.0196 29.0565C55.0196 26.7941 54.8351 25.1431 54.4357 23.431H28.4672V33.6425H43.7101C43.4029 36.1802 41.7434 40.002 38.0555 42.57L38.0038 42.9119L46.2145 49.2399L46.7834 49.2964C52.0077 44.4963 55.0196 37.4337 55.0196 29.0565" fill="#4285F4"/>
<path d="M28.4657 55.9623C35.9335 55.9623 42.2027 53.5162 46.7819 49.2971L38.054 42.5707C35.7184 44.1911 32.5837 45.3223 28.4657 45.3223C21.1516 45.3223 14.9438 40.5224 12.7309 33.8878L12.4065 33.9152L3.86885 40.4886L3.7572 40.7974C8.30548 49.7861 17.648 55.9623 28.4657 55.9623Z" fill="#34A853"/>
<path d="M12.7325 33.8878C12.1486 32.1757 11.8107 30.3412 11.8107 28.4457C11.8107 26.55 12.1486 24.7157 12.7018 23.0036L12.6863 22.6389L4.04163 15.96L3.75879 16.0938C1.88423 19.8238 0.808594 24.0125 0.808594 28.4457C0.808594 32.8789 1.88423 37.0673 3.75879 40.7974L12.7325 33.8878" fill="#FBBC05"/>
<path d="M28.4659 11.5693C33.6595 11.5693 37.1629 13.8011 39.1606 15.6663L46.9665 8.08394C42.1724 3.65076 35.9337 0.929688 28.4659 0.929688C17.6481 0.929688 8.3055 7.10553 3.7572 16.0941L12.7002 23.0039C14.9438 16.3694 21.1517 11.5693 28.4659 11.5693" fill="#EB4335"/>
</svg>
